<svg width="113" height="48" viewBox="0 0 113 48" fill="none" xmlns="http://www.w3.org/2000/svg">
<g clip-path="url(#clip0_116_566)">
<path fill-rule="evenodd" clip-rule="evenodd" d="M111.794 30.5633C107.136 38.4606 99.759 36.1691 97.5435 34.3749C96.6005 35.0147 94.9472 36.417 92.7425 36.255C88.0472 35.9104 86.3659 29.2007 86.3659 29.2007C86.3996 29.2275 84.9672 29.6949 84.1931 29.6866C84.1832 31.6542 82.4823 36.3546 77.8919 36.2945C72.7408 36.2273 71.6936 28.5531 71.6936 28.5531C71.6936 28.5531 71.181 29.2649 69.232 29.9739C69.3301 28.4622 69.2584 36.0644 63.0846 36.1761C58.2038 36.2646 56.8863 28.4348 56.8863 28.4348C56.8863 28.4348 56.0396 29.3143 54.3987 29.6194C54.503 28.0831 54.3334 36.2019 48.1589 36.1761C43.9862 36.1588 42.5603 31.353 42.6712 30.686C42.8127 29.8359 41.261 36.2957 37.2079 36.195C35.5353 36.1459 34.2883 34.9349 33.5059 33.3204C32.4584 34.5189 30.9376 36.195 29.2316 36.195C26.1692 36.195 24.8191 33.6337 25.0477 26.3179C25.0673 25.4502 25.0046 25.109 24.1421 24.9792C23.6243 24.8928 23.0941 24.7292 22.5331 24.643C22.3533 25.243 20.8283 35.9998 15.5842 36.204C13.8249 36.2725 12.863 34.7485 12.073 33.6174C10.862 35.2194 9.26335 36.255 6.986 36.255C3.12834 36.255 0.5 33.1365 0.5 29.2895C0.5 25.4425 3.12834 22.3242 6.986 22.3242C7.66807 22.3242 7.85954 22.422 8.48266 22.6038C7.2012 10.9365 10.2275 9.11303 12.8748 9.11303C15.4164 9.11303 19.7585 15.012 13.6488 29.9751C15.0053 34.4381 17.9296 34.1857 19.3348 24.9982C19.6208 23.1307 18.8561 20.6105 20.0455 20.2588C22.2199 19.616 22.4506 21.5446 23.4701 21.866C24.5481 22.2056 25.1773 22.1724 26.2121 22.3885C27.9805 22.7339 28.6706 23.6838 28.4551 25.7996C28.1964 28.4767 27.7438 32.3732 29.1238 32.8481C30.1189 33.1931 31.9358 31.1293 32.2547 30.0001C32.5734 28.871 32.6399 28.4845 32.6683 27.6563C32.7114 25.8861 32.7655 24.5886 33.0673 23.2499C33.1965 22.7319 33.3438 22.3888 33.9299 22.3654C34.4121 22.3531 35.294 22.2079 35.6823 22.51C36.1997 22.8988 36.135 23.2933 36.0756 24.3316C35.4738 39.1353 40.1056 31.7452 41.4866 25.8279C40.9948 19.1369 41.3324 9.23555 45.5253 9.06949C47.706 8.98313 48.67 10.7301 48.7761 12.034C49.076 15.7168 47.3959 21.8172 45.1864 25.9197C43.9236 34.2907 50.7077 35.9459 51.7926 29.2642C50.0176 28.4202 48.0993 25.0044 49.6603 23.3397C50.5362 22.4055 54.1822 23.7476 54.2419 26.6748C56.0303 26.1965 56.2691 25.1867 56.2939 25.354C55.8023 18.663 56.2583 9.23564 60.4515 9.06957C62.6318 8.98321 63.5957 10.7301 63.7017 12.0341C64.0017 15.7168 62.3216 21.8173 60.1124 25.9199C58.8494 34.2907 65.6336 35.946 66.7182 29.2643C65.4041 29.0107 62.6301 25.3775 64.2306 23.3398C65.086 22.2509 68.7186 24.5154 69.1253 26.7717C70.8434 26.2855 71.0767 25.3078 71.1014 25.4724C70.6096 18.7816 71.0656 9.35422 75.2588 9.18815C77.4391 9.10179 78.403 10.8487 78.5091 12.1527C78.809 15.8354 77.1289 21.936 74.9194 26.0385C73.6568 34.4095 80.4408 36.0644 81.5257 29.3827C79.7198 29.082 77.1533 25.2458 79.2189 23.2833C80.0442 22.4992 83.1977 24.5346 83.9359 26.8568C84.9615 26.8173 85.6 26.4636 85.7368 26.4279C84.0994 18.573 85.3184 9.14836 89.8291 9.06969C92.2671 9.02721 94.6506 10.3877 93.6044 17.8606C92.6058 24.9906 89.0161 27.9827 89.0245 28.0285C89.2333 28.8827 91.0753 36.0312 95.7138 32.2594C95.4737 31.7157 95.2333 31.1603 95.099 30.4874C94.3301 26.5677 95.8402 22.1404 99.9447 21.4249C102.296 21.0149 104.512 22.1598 104.862 24.741C105.438 28.9645 101.624 32.0233 100.174 32.6868C99.5245 32.3178 106.062 36.5107 109.942 28.108C110.167 27.6282 110.438 27.6689 110.79 27.9162C111.038 28.0908 112.451 29.4299 111.794 30.5633ZM9.7921 28.2517C9.59468 27.6615 9.18955 26.361 9.04628 25.7976C8.25727 25.1114 7.6941 25 6.68134 25C4.43067 25 3.10596 27.0809 3.10596 29.3247C3.10596 31.5684 4.54913 33.6496 6.79982 33.6496C8.75029 33.6496 10.2348 32.3235 10.6877 30.4462C10.3707 29.7143 10.0562 29.0417 9.7921 28.2517ZM12.8197 12.2015C11.2382 12.2015 10.7018 15.974 10.8059 19.1924C10.898 22.0378 11.6931 24.5428 12.1055 25.6653C12.2102 25.8059 12.1908 25.7144 12.2843 25.8636C15.0302 19.8472 13.8913 12.2015 12.8197 12.2015ZM45.7512 12.32C43.7073 12.0855 43.7205 20.6001 43.9742 22.51C45.0358 20.8118 46.8798 12.7772 45.7512 12.32ZM60.6769 12.32C58.6329 12.0855 58.6461 20.6001 58.9 22.51C59.9615 20.8118 61.8056 12.7772 60.6769 12.32ZM75.4844 12.4384C73.4403 12.204 73.4535 20.7186 73.7074 22.6287C74.7688 20.9303 76.613 12.8956 75.4844 12.4384ZM90.0547 11.8215C86.8701 12.461 87.6116 23.0789 88.0953 24.9412C91.8465 19.789 91.9238 11.628 90.0547 11.8215ZM101.99 25.0903C101.828 24.4133 101.018 24.0515 100.459 24.1407C98.8604 24.359 97.3095 26.3505 97.9098 29.3824C98.0435 30.0576 98.3779 30.6792 98.3724 30.6585C101.951 28.2577 102.255 26.3659 101.99 25.0903ZM34.5567 20.0218C34.0997 20.0219 33.653 19.8864 33.273 19.6326C32.8929 19.3787 32.5967 19.0179 32.4217 18.5957C32.2467 18.1735 32.201 17.7089 32.2901 17.2607C32.3792 16.8124 32.5993 16.4007 32.9224 16.0775C33.2455 15.7543 33.6572 15.5342 34.1054 15.4451C34.5537 15.3559 35.0183 15.4016 35.4405 15.5765C35.8628 15.7514 36.2236 16.0476 36.4775 16.4276C36.7314 16.8076 36.8669 17.2544 36.8669 17.7114C36.8669 18.0148 36.8072 18.3152 36.691 18.5955C36.575 18.8758 36.4049 19.1305 36.1903 19.345C35.9757 19.5596 35.7211 19.7298 35.4408 19.8459C35.1606 19.962 34.8602 20.0218 34.5567 20.0218Z" fill="#575757"/>
</g>
<defs>
<clipPath id="clip0_116_566">
<rect width="112" height="48" fill="white" transform="translate(0.5)"/>
</clipPath>
</defs>
</svg>
