<svg width="1201" height="200" viewBox="0 0 1201 200" fill="none" xmlns="http://www.w3.org/2000/svg">
<path fill-rule="evenodd" clip-rule="evenodd" d="M0 108L15 115.667C31 123.333 62 138.667 92 123.333C123 108 154 62 185 58.1667C215 54.3333 246 92.6667 277 111.833C308 131 338 131 369 115.667C400 100.333 431 69.6667 462 54.3333C492 39 523 39 554 46.6667C585 54.3333 615 69.6667 646 77.3333C677 85 702.5 81.8333 732.5 89.5C763.5 97.1667 800 122 831 110.5C862 99 892 54.3333 923 62C954 69.6667 985 123.333 1015 131C1046 138.667 1077 100.333 1108 77.3333C1138 54.3333 1169 46.6667 1185 42.8333L1200 39V200H1185C1169 200 1138 200 1108 200C1077 200 1046 200 1015 200C985 200 954 200 923 200C892 200 862 200 831 200C800 200 769 200 738 200C708 200 677 200 646 200C615 200 585 200 554 200C523 200 492 200 462 200C431 200 400 200 369 200C338 200 308 200 277 200C246 200 215 200 185 200C154 200 123 200 92 200C62 200 31 200 15 200H0V108Z" fill="white"/>
<path fill-rule="evenodd" clip-rule="evenodd" d="M0 108L15 115.667C31 123.333 53 125 92 100.333C131 75.6666 154 38.9999 185 35.1666C215 31.3333 252 91.4999 283 110.667C314 129.833 344 118.333 375 103C406 87.6666 431 46.6666 462 31.3333C492 15.9999 520.5 23.6667 551.5 31.3333C582.5 39 615 62.8333 646 70.5C677 78.1667 703 77.3333 733 85C764 92.6667 800 114.5 831 103C862 91.4999 892 31.3333 923 38.9999C954 46.6666 985 118.833 1015 126.5C1046 134.167 1077 77.3333 1108 54.3333C1138 31.3333 1155.5 29.8602 1173 31.3333C1190.5 32.8063 1200 38.9999 1200 38.9999V177H1185C1169 177 1138 177 1108 177C1077 177 1046 177 1015 177C985 177 954 177 923 177C892 177 862 177 831 177C800 177 769 177 738 177C708 177 677 177 646 177C615 177 585 177 554 177C523 177 492 177 462 177C431 177 400 177 369 177C338 177 308 177 277 177C246 177 215 177 185 177C154 177 123 177 92 177C62 177 31 177 15 177H0V108Z" fill="white" fill-opacity="0.6"/>
<path fill-rule="evenodd" clip-rule="evenodd" d="M0.473244 108.471C0.473244 108.471 -5.02675 107.138 21.4732 115.638C47.9732 124.138 85.9732 99.4903 110.473 78.6376C134.973 57.7849 154.473 17.1569 185.473 13.3236C215.473 9.49027 252.473 69.6569 283.473 88.8236C314.473 107.99 328.473 113.138 375.473 81.1569C422.473 49.1763 431.473 24.8236 462.473 9.49028C492.473 -5.84306 497.473 -0.862416 533.973 12.1376C570.473 25.1377 610.973 54.4709 641.973 62.1376C672.973 69.8043 703.973 68.9709 733.973 76.6376C764.973 84.3043 800.473 102.138 831.473 90.6376C862.473 79.1376 892.473 9.49027 923.473 17.1569C954.473 24.8236 985.473 96.9903 1015.47 104.657C1046.47 112.324 1073.97 68.1376 1104.97 45.1376C1134.97 22.1376 1146.97 13.2849 1165.97 13.6376C1184.97 13.9903 1200.47 39.6376 1200.47 39.6376V155.157H1185.47C1169.47 155.157 1138.47 155.157 1108.47 155.157C1077.47 155.157 1046.47 155.157 1015.47 155.157C985.473 155.157 954.473 155.157 923.473 155.157C892.473 155.157 862.473 155.157 831.473 155.157C800.473 155.157 769.473 155.157 738.473 155.157C708.473 155.157 677.473 155.157 646.473 155.157C615.473 155.157 585.473 155.157 554.473 155.157C523.473 155.157 492.473 155.157 462.473 155.157C431.473 155.157 400.473 155.157 369.473 155.157C338.473 155.157 308.473 155.157 277.473 155.157C246.473 155.157 215.473 155.157 185.473 155.157C154.473 155.157 123.473 155.157 92.4732 155.157C62.4732 155.157 31.4732 155.157 15.4732 155.157H0.473244V108.471Z" fill="white" fill-opacity="0.3"/>
</svg>
