<svg width="241" height="40" viewBox="0 0 241 40" fill="none" xmlns="http://www.w3.org/2000/svg">
<path d="M14.9207 34.7464L14.9225 34.7434L22.145 23.0069L25.5045 24.8883L19.0581 37.0598L14.9207 34.7464ZM14.5695 15.112L20.9708 2.94047L25.0635 5.29821L25.0613 5.30177L17.839 17.0379L14.5695 15.112ZM26.8787 17.6739L34.3619 29.2593L30.2241 31.688H30.1943L23.5638 19.645L26.8787 17.6739ZM4.75594 22.9562L18.5055 23.3619L18.5951 27.1691L4.75594 27.7552V22.983V22.9562ZM21.4787 12.8309L35.3184 12.2448L35.3633 16.9992H35.3363H35.3361L21.4787 16.6832V12.8309ZM13.1052 22.2809L5.71216 10.6503L9.79324 8.22855L16.3748 20.3549L13.1052 22.2809Z" fill="#121212" stroke="#121212" stroke-width="0.0357346"/>
<path d="M58.9993 31.5V8.14H63.4473V31.5H58.9993ZM62.8073 31.5V27.66H73.3993V31.5H62.8073ZM62.8073 21.548V17.708H72.5673V21.548H62.8073ZM62.8073 11.98V8.14H73.1433V11.98H62.8073ZM85.0156 32.108C83.5009 32.108 82.1889 31.852 81.0796 31.34C79.9916 30.828 79.0742 30.1453 78.3276 29.292C77.6022 28.4387 77.0582 27.4787 76.6956 26.412C76.3329 25.3453 76.1516 24.2573 76.1516 23.148V22.54C76.1516 21.3667 76.3329 20.2467 76.6956 19.18C77.0796 18.092 77.6449 17.132 78.3916 16.3C79.1382 15.4467 80.0556 14.7747 81.1436 14.284C82.2529 13.772 83.5329 13.516 84.9836 13.516C86.4982 13.516 87.8529 13.8147 89.0476 14.412C90.2422 14.988 91.1916 15.7987 91.8956 16.844C92.6209 17.8893 93.0262 19.1053 93.1116 20.492H88.7916C88.6849 19.596 88.3009 18.8493 87.6396 18.252C86.9996 17.6547 86.1142 17.356 84.9836 17.356C84.0022 17.356 83.1809 17.5907 82.5196 18.06C81.8796 18.5293 81.3996 19.18 81.0796 20.012C80.7596 20.8227 80.5996 21.7613 80.5996 22.828C80.5996 23.852 80.7489 24.78 81.0476 25.612C81.3676 26.444 81.8476 27.0947 82.4876 27.564C83.1489 28.0333 83.9916 28.268 85.0156 28.268C85.7836 28.268 86.4449 28.1293 86.9996 27.852C87.5542 27.5747 87.9916 27.1907 88.3116 26.7C88.6529 26.2093 88.8662 25.6547 88.9516 25.036H93.2716C93.1862 26.444 92.7702 27.6813 92.0236 28.748C91.2982 29.7933 90.3276 30.6147 89.1116 31.212C87.9169 31.8093 86.5516 32.108 85.0156 32.108ZM105.187 32.108C103.651 32.108 102.296 31.8627 101.123 31.372C99.9495 30.8813 98.9575 30.22 98.1468 29.388C97.3362 28.5347 96.7175 27.5747 96.2908 26.508C95.8855 25.4413 95.6828 24.332 95.6828 23.18V22.508C95.6828 21.3133 95.8962 20.1827 96.3228 19.116C96.7708 18.028 97.4002 17.068 98.2108 16.236C99.0428 15.3827 100.045 14.7213 101.219 14.252C102.392 13.7613 103.715 13.516 105.187 13.516C106.659 13.516 107.981 13.7613 109.155 14.252C110.328 14.7213 111.32 15.3827 112.131 16.236C112.963 17.068 113.592 18.028 114.019 19.116C114.445 20.1827 114.659 21.3133 114.659 22.508V23.18C114.659 24.332 114.445 25.4413 114.019 26.508C113.613 27.5747 113.005 28.5347 112.195 29.388C111.384 30.22 110.392 30.8813 109.219 31.372C108.045 31.8627 106.701 32.108 105.187 32.108ZM105.187 28.3C106.275 28.3 107.192 28.0653 107.939 27.596C108.685 27.1053 109.251 26.4547 109.635 25.644C110.019 24.812 110.211 23.8733 110.211 22.828C110.211 21.7613 110.008 20.8227 109.603 20.012C109.219 19.18 108.643 18.5293 107.875 18.06C107.128 17.5693 106.232 17.324 105.187 17.324C104.141 17.324 103.235 17.5693 102.467 18.06C101.72 18.5293 101.144 19.18 100.739 20.012C100.333 20.8227 100.131 21.7613 100.131 22.828C100.131 23.8733 100.323 24.812 100.707 25.644C101.112 26.4547 101.688 27.1053 102.435 27.596C103.181 28.0653 104.099 28.3 105.187 28.3ZM126.874 32.108C124.804 32.108 123.055 31.7773 121.626 31.116C120.218 30.4547 119.14 29.548 118.394 28.396C117.647 27.2227 117.274 25.9 117.274 24.428H121.722C121.722 25.0467 121.892 25.6547 122.234 26.252C122.575 26.828 123.119 27.2973 123.866 27.66C124.634 28.0227 125.636 28.204 126.874 28.204C127.983 28.204 128.911 28.044 129.658 27.724C130.404 27.404 130.959 26.988 131.322 26.476C131.684 25.9427 131.866 25.3453 131.866 24.684C131.866 23.852 131.514 23.1907 130.81 22.7C130.106 22.188 129.018 21.868 127.546 21.74L125.498 21.58C123.258 21.388 121.466 20.6947 120.122 19.5C118.799 18.284 118.138 16.684 118.138 14.7C118.138 13.2067 118.49 11.9267 119.194 10.86C119.898 9.772 120.879 8.94 122.138 8.364C123.418 7.76667 124.911 7.468 126.618 7.468C128.388 7.468 129.914 7.77733 131.194 8.396C132.474 9.01467 133.466 9.88933 134.17 11.02C134.874 12.1293 135.226 13.4413 135.226 14.956H130.778C130.778 14.316 130.618 13.7293 130.298 13.196C129.999 12.6413 129.54 12.204 128.922 11.884C128.324 11.5427 127.556 11.372 126.618 11.372C125.722 11.372 124.975 11.5213 124.378 11.82C123.78 12.1187 123.332 12.524 123.034 13.036C122.735 13.548 122.586 14.1027 122.586 14.7C122.586 15.4253 122.852 16.0653 123.386 16.62C123.919 17.1533 124.762 17.4627 125.914 17.548L127.962 17.74C129.626 17.868 131.087 18.22 132.346 18.796C133.604 19.372 134.575 20.1507 135.258 21.132C135.962 22.1133 136.314 23.2973 136.314 24.684C136.314 26.156 135.93 27.4573 135.162 28.588C134.394 29.6973 133.295 30.5613 131.866 31.18C130.458 31.7987 128.794 32.108 126.874 32.108ZM146.068 31.5L149.364 14.7H154.484L158.292 31.5H154.772L150.9 14.796H152.756L149.332 31.5H146.068ZM144.756 31.5L144.724 27.852H148.276V31.5H144.756ZM142.964 31.5L138.228 14.124H142.548L147.06 31.5H142.964ZM155.892 31.5V27.852H159.444L159.412 31.5H155.892ZM157.3 31.5L161.3 14.124H165.332L161.14 31.5H157.3ZM179.144 31.5V26.348H178.408V20.62C178.408 19.6173 178.163 18.8707 177.672 18.38C177.181 17.8893 176.424 17.644 175.4 17.644C174.867 17.644 174.227 17.6547 173.48 17.676C172.733 17.6973 171.976 17.7293 171.208 17.772C170.461 17.7933 169.789 17.8253 169.192 17.868V14.092C169.683 14.0493 170.237 14.0067 170.856 13.964C171.475 13.9213 172.104 13.9 172.744 13.9C173.405 13.8787 174.024 13.868 174.6 13.868C176.392 13.868 177.875 14.1027 179.048 14.572C180.243 15.0413 181.139 15.7773 181.736 16.78C182.355 17.7827 182.664 19.0947 182.664 20.716V31.5H179.144ZM173.544 31.948C172.285 31.948 171.176 31.724 170.216 31.276C169.277 30.828 168.541 30.188 168.008 29.356C167.496 28.524 167.24 27.5213 167.24 26.348C167.24 25.068 167.549 24.0227 168.168 23.212C168.808 22.4013 169.693 21.7933 170.824 21.388C171.976 20.9827 173.32 20.78 174.856 20.78H178.888V23.436H174.792C173.768 23.436 172.979 23.692 172.424 24.204C171.891 24.6947 171.624 25.3347 171.624 26.124C171.624 26.9133 171.891 27.5533 172.424 28.044C172.979 28.5347 173.768 28.78 174.792 28.78C175.411 28.78 175.976 28.6733 176.488 28.46C177.021 28.2253 177.459 27.8413 177.8 27.308C178.163 26.7533 178.365 26.0067 178.408 25.068L179.496 26.316C179.389 27.532 179.091 28.556 178.6 29.388C178.131 30.22 177.469 30.86 176.616 31.308C175.784 31.7347 174.76 31.948 173.544 31.948ZM187.429 37.9V14.124H190.949V21.612L190.405 21.58C190.49 19.8093 190.853 18.3267 191.493 17.132C192.154 15.9373 193.029 15.052 194.117 14.476C195.205 13.8787 196.421 13.58 197.765 13.58C199.002 13.58 200.111 13.804 201.093 14.252C202.095 14.7 202.949 15.3293 203.653 16.14C204.378 16.9507 204.933 17.9 205.317 18.988C205.701 20.0547 205.893 21.2067 205.893 22.444V23.116C205.893 24.3747 205.701 25.548 205.317 26.636C204.954 27.7027 204.41 28.652 203.685 29.484C202.981 30.2947 202.127 30.9347 201.125 31.404C200.122 31.852 199.002 32.076 197.765 32.076C196.463 32.076 195.269 31.8093 194.181 31.276C193.114 30.7213 192.25 29.8787 191.589 28.748C190.927 27.596 190.554 26.1133 190.469 24.3L191.877 26.444V37.9H187.429ZM196.645 28.332C197.605 28.332 198.437 28.0973 199.141 27.628C199.866 27.1587 200.431 26.508 200.837 25.676C201.242 24.8227 201.445 23.8627 201.445 22.796C201.445 21.6867 201.242 20.7267 200.837 19.916C200.431 19.1053 199.866 18.476 199.141 18.028C198.437 17.5587 197.605 17.324 196.645 17.324C195.77 17.324 194.959 17.516 194.213 17.9C193.487 18.284 192.89 18.8493 192.421 19.596C191.973 20.3427 191.749 21.2387 191.749 22.284V23.564C191.749 24.5667 191.983 25.42 192.453 26.124C192.922 26.828 193.53 27.372 194.277 27.756C195.023 28.14 195.813 28.332 196.645 28.332Z" fill="#121212"/>
</svg>
